<svg width="2481" height="328" viewBox="0 0 2481 328" fill="none" xmlns="http://www.w3.org/2000/svg">
<path d="M6.73335 2.53336C7.80001 5.20003 130.333 222.533 131.533 223.6C132.2 224.267 247.667 21.4667 257.933 1.60003C258.2 1.0667 201.667 0.666696 132.333 0.666696C25.8 0.666696 6.20001 0.933362 6.73335 2.53336Z" fill="black"/>
<path d="M403 59.8666C378.467 64.8 361.133 76 347.8 96C335.933 113.733 330.733 135.6 332.067 162.667C333 182.267 335.533 192.533 342.6 207.333C347 216.533 350.067 220.667 358.867 229.333C377.133 247.333 393.133 253.333 421.667 253.2C436.467 253.067 440.467 252.533 449.4 249.733C473.8 241.6 492.333 223.2 499.667 199.467C504.2 185.067 505.4 186 482.467 186H462.6L460.333 192.533C457.533 200.933 450.333 209.2 441.8 213.733C435.667 216.933 433.667 217.333 421 217.333C408.333 217.333 406.333 216.933 400.333 213.733C381.533 203.733 373 186 373 156.667C373 132.8 377 119.733 387.933 107.867C401.8 92.8 427.933 89.6 445.667 100.8C452.2 104.933 458.867 114.267 461.133 122.267L462.467 127.333H482.333C505.133 127.333 503.8 128.267 500.333 114.8C493.533 88.8 472.467 68.4 445.4 61.4666C433.533 58.4 414.2 57.7333 403 59.8666Z" fill="black"/>
<path d="M1455.53 82.9334C1459.8 95.3334 1474.6 138.133 1488.47 178.267L1513.67 251.333H1539.67H1565.67L1598.07 156.933C1615.8 105.067 1630.33 62.2667 1630.33 61.6C1630.33 61.0667 1620.47 60.6667 1608.47 60.6667H1586.6L1585.13 64.9334C1584.33 67.3334 1574.07 99.6 1562.33 136.667C1550.6 173.6 1540.47 204.4 1539.8 205.067C1539.27 205.6 1528.33 173.333 1515.67 133.333L1492.47 60.6667H1470.07H1447.8L1455.53 82.9334Z" fill="black"/>
<path d="M1982.33 91.3333V108.667H1972.33H1962.33V123.333V138H1972.33H1982.33V179.733C1982.33 227.867 1982.87 231.467 1991.8 240.667C2000.87 250 2006.87 252 2026.33 252C2035.53 252 2044.73 251.467 2046.87 250.933C2050.47 249.867 2050.6 249.6 2049.8 244.267C2049.27 241.2 2047.93 234.667 2046.87 229.733L2044.87 220.8L2037.13 220.933C2033 220.933 2028.2 220.4 2026.6 219.467C2021.8 216.933 2020.87 209.733 2021.27 173.067L2021.67 138.667L2035.4 138.267L2049 137.867V123.333V108.667H2035H2021V91.3333V74H2001.67H1982.33V91.3333Z" fill="black"/>
<path d="M5.00003 106.267C7.13337 110.133 36.2 161.467 69.2667 220.267C102.467 279.2 129.933 327.333 130.333 327.333C130.733 327.333 158.2 279.2 191.4 220.267C224.6 161.467 253.533 110.133 255.667 106.267L259.667 99.3334H232.067L204.333 99.4667L168.467 163.333C148.6 198.533 132.067 226.933 131.533 226.4C131 225.733 114.6 197.067 95.1334 162.667L59.8 100L30.3334 99.6L0.866699 99.3334L5.00003 106.267Z" fill="black"/>
<path d="M2301.93 107.867C2291.8 110.667 2285 116.267 2280.07 125.867L2275.67 134.267V121.467V108.667H2256.33H2237V180V251.333H2257H2277V206.667C2277 164.8 2277.13 161.6 2279.67 156.8C2285.53 145.067 2299 138.933 2311.8 142C2315.4 142.933 2318.6 143.467 2318.87 143.2C2319.13 142.933 2321.53 136.4 2324.33 128.667C2327.13 120.933 2329.67 113.867 2329.93 112.933C2331.67 108.667 2312.07 105.067 2301.93 107.867Z" fill="black"/>
<path d="M569.4 109.333C549.8 114.667 535.133 127.867 530.333 144.533C529 149.333 529.4 149.467 550.467 150.8C565.4 151.6 566.067 151.6 566.867 148.933C569.133 141.867 581.133 135.333 591.667 135.333C597.8 135.333 606.867 139.6 609.533 143.6C611.8 147.067 612.733 156.533 611 159.2C609.133 162.4 601.133 164.667 584.067 166.667C554.733 170.267 543.133 174.533 533.4 184.933C526.467 192.533 524.467 198.8 524.467 212C524.6 234.267 536.6 248.267 559.4 252.667C580.867 256.933 599.933 250.267 611.267 234.667L614.2 230.667L614.333 240.933V251.333H633H651.8L651.4 196.267C651 143.333 650.867 141.067 648.067 135.067C642.467 122.933 629.267 113.2 612.733 109.333C602.2 106.8 578.6 106.933 569.4 109.333ZM612.733 197.333C612.2 207.2 611.667 209.467 608.2 214.267C602.6 222.133 594.333 226.133 583.267 226.133C569.4 226.133 562.333 221.067 562.333 210.933C562.333 199.2 569.267 194.267 591 190.533C598.333 189.333 605.533 187.867 607 187.2C613.133 184.8 613.4 185.333 612.733 197.333Z" fill="black"/>
<path d="M745.533 109.467C737.933 112.133 729.667 119.6 725 127.867L721 134.667V121.6V108.667H701.667H682.333V180V251.333H702.333H722.2L722.6 203.6C723 150.533 723 151.067 732.6 143.733C736.733 140.533 738.733 140 745.8 140C755.8 140 760.2 142.667 764.734 151.333C767.667 157.067 767.667 158.133 767.667 204.267V251.333H787H806.2L806.6 202.133C807 154.8 807.134 152.667 809.8 149.2C817 139.467 828.867 136.667 839.534 142.267C850.334 147.867 850.334 147.733 850.334 202.933V251.333H870.467H890.467L890.067 195.6L889.667 140L886.2 132.667C881.667 122.8 876.067 116.667 867.4 111.867C860.734 108.267 859.534 108 845 108C831.4 108 829 108.4 823.667 111.2C814.067 116.267 810.334 119.6 805.667 127.067L801.267 134.267L798.6 128.4C795.534 121.467 789.267 114.933 781.8 111.067C774.6 107.333 753.8 106.4 745.533 109.467Z" fill="black"/>
<path d="M982.6 111.333C974.867 115.333 968.867 121.067 962.733 130.8C961.4 132.933 961.133 131.067 961.133 120.933L961 108.667H941H921V206.667V304.667H941H961L961.133 266.267C961.133 229.867 961.267 228.133 963.4 231.333C975.4 248.933 992.467 256.4 1012.33 252.8C1034.73 248.667 1051.13 231.867 1057.93 206C1061 194 1061 165.867 1057.93 154C1052.73 134.267 1041.8 119.867 1026.6 112.4C1018.73 108.4 1016.33 108 1004.33 107.6C991.533 107.2 990.6 107.333 982.6 111.333ZM1003.53 141.333C1009.13 144.133 1015.27 152.933 1017.8 161.733C1021 172.4 1019.93 195.067 1015.93 204C1012.07 212.4 1008.47 216.4 1001.67 219.467C991.667 224.133 977.8 221.6 970.733 213.867C956.6 198.4 957.267 158.667 972.067 144.933C979.4 138 994.067 136.4 1003.53 141.333Z" fill="black"/>
<path d="M1283.67 109.733C1261.13 115.6 1247.67 130.667 1247.67 150C1247.67 161.2 1249.4 167.333 1254.73 174.133C1261 182.4 1272.47 188.133 1290.47 192C1318.47 198.133 1322.47 199.2 1326.47 202C1334.2 207.6 1332.6 217.333 1323.13 222.267C1319.13 224.4 1315.27 225.2 1308.33 225.2C1296.47 225.2 1288.6 221.333 1284.47 213.333L1281.67 208L1263.13 208.933C1253 209.467 1244.33 210.267 1244.07 210.533C1242.47 212.133 1248.33 226.533 1252.87 232.267C1263.53 245.867 1279.27 252.533 1303 253.6C1333.67 254.933 1357.4 244.667 1367.4 225.467C1370.47 219.6 1371 217.067 1371 207.333C1371 194.667 1369.4 190.533 1361.8 182.8C1355.27 176.4 1344.33 171.6 1327.13 167.867C1299.4 161.867 1295 160.667 1291.8 158.267C1283.93 152.4 1285.53 142.133 1294.87 137.867C1301.53 134.8 1315.53 134.533 1320.87 137.333C1325.4 139.6 1331.67 146.667 1331.67 149.467C1331.67 151.2 1334.2 151.333 1348.73 150.667C1358.07 150.133 1366.33 149.6 1367.27 149.333C1368.47 148.933 1368.47 147.467 1367.4 143.733C1362.47 125.867 1350.33 114.4 1330.73 109.333C1320.2 106.533 1295 106.8 1283.67 109.733Z" fill="black"/>
<path d="M1695.8 109.467C1672.73 115.6 1655 135.2 1649.67 160.267C1645.4 180.4 1648.33 205.6 1656.6 221.067C1667.8 241.867 1690.87 253.867 1719.13 254C1746.2 254 1768.73 242.267 1778.33 222.933C1784.47 210.667 1784.33 210.533 1770.07 209.467C1747.8 208 1747.93 207.867 1742.07 214.667C1738.2 219.067 1735 221.2 1729.93 222.667C1708.07 229.2 1690.07 218.133 1687 196.267L1686.07 190H1734.87H1783.67V178.933C1783.53 143.067 1767.13 118.4 1737.13 109.467C1727.93 106.8 1705.8 106.8 1695.8 109.467ZM1734.07 141.2C1740.07 145.333 1746.33 156 1746.33 162.267V166H1716.2H1686.07L1687 161.6C1689.27 151.333 1695.53 143.2 1704.33 139.067C1712.6 135.2 1726.87 136.133 1734.07 141.2Z" fill="black"/>
<path d="M1874.33 109.467C1865.53 112.667 1858.33 118.4 1852.73 126.8L1847.67 134.267V121.467V108.667H1828.33H1809V180V251.333H1829H1848.87L1849.27 204.933C1849.67 160 1849.8 158.533 1852.6 153.067C1862.2 135.2 1889.13 134.933 1898.07 152.667C1901 158.4 1901 159.467 1901 204.933V251.333H1921.13H1941.13L1940.73 197.6C1940.33 145.2 1940.2 143.867 1937.27 136.4C1933.13 126.267 1924.07 116.4 1914.6 111.733C1908.07 108.533 1905.13 108 1893.67 107.733C1883.93 107.467 1878.73 107.867 1874.33 109.467Z" fill="black"/>
<path d="M2390.33 109.867C2372.07 115.733 2359.13 126.8 2351.27 143.333C2345.27 156 2343.67 164.133 2343.67 181.067C2343.67 204.933 2349.93 221.867 2363.53 235.2C2377.13 248.8 2395.27 254.8 2419 253.6C2447.8 252.267 2469.27 238.667 2476.6 217.2C2477.67 213.867 2478.47 210.933 2478.07 210.667C2477.8 210.4 2469.53 209.733 2459.67 209.2L2441.53 208.267L2440.07 211.733C2436.33 219.867 2422.47 225.733 2410.33 224.267C2394.87 222.4 2384.6 212.133 2382.73 196.533L2381.93 190H2431H2480.07L2479.27 175.6C2478.73 167.733 2477.53 158.133 2476.47 154.133C2470.33 131.467 2454.2 115.067 2432.33 109.333C2421.4 106.533 2399.8 106.8 2390.33 109.867ZM2426.07 139.2C2432.87 142.667 2437.8 148.267 2440.33 155.2C2444.33 166.667 2446.2 166 2412.33 166C2383 166 2382.33 166 2382.33 163.333C2382.33 155.333 2390.47 143.6 2398.6 139.467C2406.2 135.733 2419.13 135.6 2426.07 139.2Z" fill="black"/>
<path d="M1087.93 162.933L1088.33 217.333L1092.2 225.6C1100.2 243.067 1115.67 252.667 1135.67 252.667C1153.67 252.667 1166.73 245.733 1175.93 231.467L1179.67 225.467V238.4V251.333H1199H1218.33V180V108.667H1198.33H1178.33V153.867C1178.33 202.933 1178.07 204.667 1170.73 211.467C1164.07 217.733 1158.73 219.733 1149.8 219.067C1139.93 218.533 1134.33 215.067 1129.93 206.933C1127.13 201.467 1127 200 1126.6 154.933L1126.2 108.667H1106.87H1087.53L1087.93 162.933Z" fill="black"/>
<path d="M2074.6 162.267C2075 214.8 2075.13 216.133 2078.07 223.6C2082.2 233.733 2091.27 243.6 2100.73 248.267C2107.67 251.733 2109.67 252 2123 252C2136.47 252 2138.2 251.733 2144.73 248.267C2152.73 244 2161.27 235.867 2163.67 230C2166.47 223.067 2167.67 225.6 2167.67 238.667V251.333H2186.33H2205V180V108.667H2185.8H2166.47L2166.07 153.6C2165.67 197.467 2165.53 198.8 2162.6 204.8C2158.07 214 2150.87 218.533 2139.8 219.067C2128.6 219.6 2122.07 216.133 2117.4 207.467C2114.33 201.6 2114.33 201.2 2114.33 155.067V108.667H2094.2H2074.2L2074.6 162.267Z" fill="black"/>
</svg>
