<svg width="3001" height="494" viewBox="0 0 3001 494" fill="none" xmlns="http://www.w3.org/2000/svg">
<g clip-path="url(#clip0_419_878)">
<path d="M3000 347.41C2997.16 371.01 2975.23 388.54 2954.26 396.08C2902.5 414.68 2805.06 404.39 2807 332.44H2866.5C2868.98 334.59 2867.63 338.14 2868.47 341.45C2872.35 356.75 2899.73 358.43 2912.37 357.26C2922.5 356.32 2942.23 351.25 2940.95 338.05C2939.71 325.22 2924.13 322.72 2913.82 320.14C2879.48 311.55 2814.33 306.72 2810.01 260.07C2803.41 188.79 2901.06 175.88 2951.26 195.95C2976.9 206.2 2999.48 229.16 2997 258.59H2937C2937.54 232.35 2902.18 230.35 2883.46 236.6C2865.63 242.55 2864.68 257.8 2881.77 265.31C2915.47 280.11 2993.32 275.05 3000 327.45C3000.55 331.8 3000.53 343.02 3000 347.41Z" fill="#FEFEFE"/>
<path d="M-9.76585e-06 429.24V191.72L54.11 151.41C58.56 148.52 63.83 151.05 65.33 155.96C66.58 231.98 66.15 308.33 65.55 384.39L63.02 389.85L9.25999 433.06C5.20999 434.17 2.88999 431.38 -0.0100098 429.24H-9.76585e-06Z" fill="#FEFEFE"/>
<path d="M112 493.11H105C102.19 490.07 101.32 487.79 100.96 483.67C99.31 464.63 99.28 427.77 100.96 408.74C101.24 405.6 101.86 402.24 104.07 399.87C120.16 388.56 135.06 374.14 151.1 362.98C158.02 358.17 164.7 352.61 168.02 364.85L167.55 447.26L162.47 453.16L112 493.11Z" fill="#FEFEFE"/>
<path d="M537 231.64H641V109.89H702V399.3H641V279.54H537V399.3H475V109.89H535.5C535.61 109.89 537 111.28 537 111.39V231.65V231.64Z" fill="#FEFEFE"/>
<path d="M2280 92.9199V399.3H2219V376.35C2175.16 422.02 2100.68 409.74 2071.48 354.42C2057.89 328.68 2055.32 291.71 2061.47 263.55C2077.21 191.38 2165.83 160.67 2219 214.68V92.9299H2280V92.9199ZM2163.78 238.91C2125.43 243.53 2115.63 282.59 2123.72 315.26C2135.62 363.3 2206.99 362.29 2217.73 314.7C2226.43 276.11 2209.5 233.4 2163.79 238.91H2163.78Z" fill="#FEFEFE"/>
<path d="M2563 313.48H2399C2401.52 338.11 2420.85 355.58 2445.46 357.43C2464.47 358.86 2495.13 355.8 2500 333.44H2561C2549.97 402.33 2452.48 417.74 2398.33 394.49C2314.22 358.38 2315.42 230.3 2401.02 196.23C2439.51 180.92 2492.42 184.55 2525.48 210.7C2556.22 235.02 2566.84 275.5 2563 313.47V313.48ZM2501 273.56C2495.2 218.07 2407.96 221.12 2399 273.56H2501Z" fill="#FEFEFE"/>
<path d="M1341.79 188.02C1419.93 180.97 1480.57 231.94 1469.88 312.85C1453.32 438.14 1250.2 434.4 1242.96 303.03C1239.58 241.58 1280.26 193.57 1341.8 188.01L1341.79 188.02ZM1347.78 236.91C1286.52 244.22 1289.41 362.64 1363.38 355.27C1427.01 348.93 1427.41 227.41 1347.78 236.91Z" fill="#FEFEFE"/>
<path d="M2003 399.3H1942V278.05C1942 257.43 1928.15 241.22 1907.48 239.64C1882.97 237.77 1857 255.79 1857 282.04V399.3H1796V190.72H1857V221.66C1877.57 196.03 1907.59 184.23 1940.48 187.74C1979.36 191.89 1999.78 221.14 2002.99 258.09V399.29L2003 399.3Z" fill="#FEFEFE"/>
<path d="M1589 190.73V306.98C1590.71 334.76 1599.53 354.75 1631.37 351.27C1652.1 349.01 1670 322.78 1670 302.99V190.72H1731V399.3H1670V370.36C1655.92 388.86 1635.15 401.47 1611.49 403.28C1559.16 407.29 1531.45 380.01 1528.01 328.93V190.72H1589V190.73Z" fill="#FEFEFE"/>
<path d="M1207 109.89V157.79H1091V234.63H1190V282.53H1091V399.29H1029V111.39C1029 111.28 1030.39 109.89 1030.5 109.89H1207Z" fill="#FEFEFE"/>
<path d="M2682 217.67C2691.81 204.56 2703.64 194.41 2719.79 190.01C2731.85 186.73 2748.96 186.35 2761.23 189C2763.51 189.49 2769.92 191.08 2770.11 193.21L2761.01 246.61C2735.55 236.62 2704.38 240.88 2690.21 266.26C2686.79 272.38 2682.01 287.26 2682.01 294.01V399.3H2620.01V192.22C2620.01 192.11 2621.4 190.72 2621.51 190.72H2682.01V217.67H2682Z" fill="#FEFEFE"/>
<path d="M159.67 75.2198C163 75.1198 167.39 78.7998 167.01 82.4298L166.97 310.96C166.55 313.14 162.74 316.37 161.01 317.98C149.73 328.49 127.98 346.91 115.49 355.39C107.67 360.7 101.6 358.9 100.95 348.94L101.05 120.43L105.04 113.44C121.74 103.87 137.76 86.8298 154.05 77.5298C155.53 76.6898 158.04 75.2698 159.66 75.2198H159.67Z" fill="#FEFEFE"/>
<path d="M259.72 0.299953C266.72 -1.26005 269.26 3.37995 270 9.57995L269.73 232.87C268.98 237.65 267.74 238.51 264.46 241.59C249.63 255.5 230.63 267.67 215.35 281.4C209.81 284.4 203.57 281.81 203.94 275.1L204.01 42.55L207.52 38.07L259.72 0.299953Z" fill="#FEFEFE"/>
<path d="M827 190.73H767V399.31H827V190.73Z" fill="#FEFEFE"/>
<path d="M951 110.89L939 318.47H902L890 110.89H951Z" fill="#FEFEFE"/>
<path d="M917.78 340.7C960.7 336.58 965.35 400.46 926.39 405.18C880.54 410.73 875.7 344.74 917.78 340.7Z" fill="#FEFEFE"/>
<path d="M794.82 100.18C809.42 99.5298 829.75 107.07 831.91 123.45C837.76 167.76 766.42 166.73 762.08 134.26C759.25 113.08 774.99 101.07 794.82 100.18Z" fill="#FEFEFE"/>
</g>
<defs>
<clipPath id="clip0_419_878">
<rect width="3000.41" height="493.11" fill="white"/>
</clipPath>
</defs>
</svg>
